<svg width="2139" height="1290" viewBox="0 0 2139 1290" xmlns="http://www.w3.org/2000/svg">
  <defs>
    <linearGradient x1="56.455%" y1="138.221%" x2="56.455%" y2="26.236%" id="a">
      <stop stop-color="#FFF" stop-opacity="0" offset="0%"/>
      <stop stop-color="#F2F5F2" offset="100%"/>
    </linearGradient>
  </defs>
  <path d="M441.396 455h113.137L57.4 952.134.83 895.566 441.396 455zm226.274 0h113.137l-610.271 610.272-56.569-56.569L667.67 455zm226.274 0h113.138l-723.41 723.409-56.568-56.569L893.944 455zm226.275 0h113.137L396.81 1291.546l-56.569-56.569L1120.22 455zm226.274 0h113.137l-949.683 949.683-56.569-56.569L1346.494 455zm226.274 0h113.137L623.084 1517.82l-56.568-56.569L1572.766 455zm226.274 0h113.137L736.221 1630.957l-56.568-56.569L1799.04 455zm226.274 0h113.137L849.358 1744.094l-56.568-56.568L2025.315 455zM2593 .214l.12.119-.12.12v-.24z" transform="translate(0 -455)" fill="url(#a)" fill-rule="evenodd"/>
</svg>
