<svg width="125" height="28" viewBox="0 0 125 28" xmlns="http://www.w3.org/2000/svg">
  <g fill="none" fill-rule="evenodd">
    <path d="M8.655 22.75l-4.36-7.46-1.21 1.69v1.99H.289V.07h2.798v12.348L5.505 8.89H8.83L6.06 12.796l5.771 9.954H8.655zm12.524-2.646h5.494v2.646h-13.86v-2.646h5.544V7.756h-5.368V5.11h13.533v2.646h-5.343v12.348zm13.684 4.158c1.613 0 2.923-.983 2.923-3.578h2.822c0 4.258-2.57 6.224-5.745 6.224-3.175 0-5.746-2.218-5.746-5.544V6.496c0-3.326 2.57-5.544 5.746-5.544 3.175 0 5.745 1.966 5.745 6.224h-2.822c0-2.595-1.31-3.578-2.923-3.578S31.94 4.833 31.94 6.672v14.516c0 1.84 1.31 3.074 2.923 3.074zm16.632-1.512l-4.385-7.46-1.184 1.69v10.81h-2.798V8.89h2.798v3.528l5.09-7.308h3.326l-5.468 7.686 5.796 9.954h-3.175zm9.262-15.498c3.175 0 5.746 2.394 5.746 5.544v2.268c0 3.15-2.57 5.544-5.746 5.544-3.175 0-5.72-2.394-5.72-5.544v-2.268c0-3.15 2.545-5.544 5.72-5.544zm0 10.71c1.638 0 2.923-1.235 2.923-2.898v-2.268c0-1.663-1.285-2.898-2.923-2.898-1.613 0-2.923 1.235-2.923 2.898v2.268c0 1.663 1.31 2.898 2.923 2.898zM76.003 7.756h-3.578v5.418h3.074v2.646h-3.074v11.97h-2.797V5.11h6.375v2.646zm15.045 0h-9.879v5.418h8.87v2.646h-8.87v3.15h-2.797V5.11h12.676v2.646z" fill="#003630"/>
    <path d="M86.8 19.84h3.226v3.05H86.8v-3.05zm19.354 3.05l-1.512-4.007h-7.863l-1.487 4.007h-3.175l6.628-17.64h3.906l6.678 17.64h-3.175zm-8.367-6.653h5.847l-2.924-8.215-2.923 8.215zm21.566 4.007h5.493v2.646h-13.86v-2.646h5.544V7.896h-5.367V5.25h13.532v2.646h-5.342v12.348z" fill="#00BF7C"/>
  </g>
</svg>
