<?xml version="1.0" encoding="utf-8"?>
<!-- Generator: Adobe Illustrator 24.1.2, SVG Export Plug-In . SVG Version: 6.00 Build 0)  -->
<svg version="1.1" id="Layer_1" xmlns="http://www.w3.org/2000/svg" xmlns:xlink="http://www.w3.org/1999/xlink" x="0px" y="0px"
	 viewBox="0 0 256 265" style="enable-background:new 0 0 256 265;" xml:space="preserve">
<style type="text/css">
	.st0{fill:#fff;}
</style>
<g id="XMLID_12_">
	<path id="XMLID_6_" class="st0" d="M292.1,421.6h-88l0,0l-5.8-5.3l8.7,0.4c0.3-0.9,0.1-1.8-0.6-2.5l-21-20.2
		c-0.2-0.2-0.4-0.3-0.6-0.4l-1.7-0.7v-4.8h0.5v-1.8h-0.5v-0.9c0-1.1-0.9-1.9-2-1.9h-3.8c-1.1,0-2,0.9-2,1.9v0.9h-0.8v1.8h0.8v1.7
		l-33.2-13c-0.6-0.2-1.2,0-1.6,0.5l-24.7,36.1c-0.2,0.3-0.2,0.7,0,1c0.2,0.3,1.8,0.3,2.1,0.3l23-34.5c0.2-0.3,0.6-0.5,1-0.5
		c0.4,0,0.8,0.1,1,0.4l31.9,33c0.4,0.4,0.8,0.6,1.4,0.6l8.6,0.4l-10.1,1.2l-30.9-31.6c-0.3-0.3-0.8-0.5-1.3-0.5
		c-0.5,0-0.9,0.3-1.2,0.6L119,414.9l3.8,0.9l0.2,5.8H30.6c-15,0-27.3,12.2-27.3,27.3v41.4c0,15,12.2,27.3,27.3,27.3h261.4
		c15,0,27.3-12.2,27.3-27.3v-41.4C319.3,433.9,307.1,421.6,292.1,421.6z M177.2,385.5C177.2,385.4,177.2,385.4,177.2,385.5l2.2-0.1
		v1h-2.2V385.5z M177.2,388.2h2.2v3.3l-2.2-0.9V388.2z M140.6,402.6l1.4-2.4h5.9c0.4,0,0.7,0.3,0.7,0.6v13.9c0,0.3-0.3,0.6-0.7,0.6
		h-6.7c-0.4,0-0.7-0.3-0.7-0.6V402.6z M309.2,490.3c0,9.5-7.7,17.2-17.2,17.2H30.6c-9.5,0-17.2-7.7-17.2-17.2v-41.4
		c0-9.5,7.7-17.2,17.2-17.2h92.8v-0.2l15-25.2v9.4c0,1.5,1.3,2.7,2.8,2.7h7.7c1.6,0,2.8-1.2,2.8-2.7v-14.9c0-1.5-1.3-2.7-2.8-2.7
		h-5.6l3.1-5.3c0.2-0.3,0.6-0.5,1-0.6c0.4,0,0.8,0.1,1.1,0.4l24.6,26.4c0.2,0.2,0.3,0.4,0.3,0.7v3.8c0,0.7,0.6,1.3,1.3,1.3h6.9
		c0.4,0,0.7-0.1,0.9-0.4l8.7-8.5l6.1,0.2l-0.2,0.3l-6.1,9c-0.3,0.4-0.8,0.7-1.3,0.7h-15.2c-0.7,0-1.3,0.6-1.3,1.3V443l2.5-13.6
		l15.4-0.2v12.1c0,0.7,0.4,1.4,1,1.8c0.6,0.4,1.4,0.4,2,0l7.9-4.6c0.8-0.5,1.3-1.3,1.3-2.2l0.2-4.6h88.3c9.5,0,17.2,7.7,17.2,17.2
		V490.3z"/>
	<path id="XMLID_5_" class="st0" d="M159.6,406.8h0.7c0.4,0,0.8-0.3,0.8-0.8v-3.5c0-0.4-0.3-0.8-0.8-0.8h-0.7
		c-0.4,0-0.8,0.3-0.8,0.8v3.5C158.9,406.4,159.2,406.8,159.6,406.8z"/>
	<path id="XMLID_4_" class="st0" d="M159.6,406.8h0.7c0.4,0,0.8-0.3,0.8-0.8v-3.5c0-0.4-0.3-0.8-0.8-0.8h-0.7
		c-0.4,0-0.8,0.3-0.8,0.8v3.5C158.9,406.4,159.2,406.8,159.6,406.8z"/>
	<path id="XMLID_3_" class="st0" d="M158,413.8h3.9c0.4,0,0.8-0.3,0.8-0.8v-4c0-0.4-0.3-0.8-0.8-0.8H158c-0.4,0-0.8,0.3-0.8,0.8v4
		C157.3,413.5,157.6,413.8,158,413.8z"/>
	<g>
		<path class="st0" d="M60.6,476.8c1-9,1.5-15.3,1.5-19c0.5-1,2-1.5,4.5-1.5c2.9,0,4.4,1.1,4.4,3.3c0,5-1.6,12.1-4.8,21.3
			c-0.7,2-2.7,3-5.9,3c-2.7,0-4.6-0.6-5.5-1.8c-0.9-7-1.5-13-1.8-18c-0.3,7.9-1.1,13.5-2.3,16.9c-0.7,1.9-2.6,2.8-5.7,2.8
			c-2.5,0-4.1-0.6-4.9-1.7l-5.4-23.6c0-0.4,0.2-0.8,0.6-1.1c0.8-0.8,2.1-1.1,3.9-1.1c2.9,0,4.7,1.2,5.2,3.7
			c0.9,3.6,1.3,9.2,1.4,16.8c1.4-8.9,2-15.3,2-19c1-1.1,2.7-1.6,5.2-1.6c3.3,0,5.1,1.1,5.6,3.3C59.5,464.8,60.2,470.5,60.6,476.8z"
			/>
		<path class="st0" d="M96.2,481.1c0,1.6-1.6,2.4-4.7,2.4c-3.1,0-4.7-0.8-4.7-2.4v-6.8h-4.4v6.8c0,1.6-1.6,2.4-4.7,2.4
			c-3.1,0-4.7-0.8-4.7-2.4v-22c0-1.6,1.5-2.4,4.6-2.4c3.2,0,4.8,0.8,4.8,2.4v9h4.4v-9c0-1.6,1.5-2.4,4.6-2.4c3.2,0,4.8,0.8,4.8,2.4
			V481.1z"/>
		<path class="st0" d="M117.3,477c0.6,0.4,0.9,1.3,0.9,2.5c0,1.5-0.3,2.5-1,3.1c-0.8,0.7-2.2,1-4.2,1h-6.6c-2.6,0-4.4-0.4-5.5-1.3
			c-0.9-0.7-1.3-1.7-1.3-3.2v-19.6c0-0.8,0.3-1.5,0.9-2c0.6-0.5,1.3-0.7,2.2-0.7h13.5c0.8,0.7,1.2,1.8,1.2,3.4
			c-0.1,1.5-0.4,2.5-0.9,3.1c-0.6,0.6-1.7,0.9-3.3,0.9h-4.7v3.3h7.6c1.2,0,1.8,0.9,1.8,2.8c0,1.2-0.3,2.1-1,2.6
			c-0.7,0.5-1.9,0.8-3.5,0.8h-4.8v3.3H117.3z"/>
		<path class="st0" d="M139.9,459.1c2.1,1.8,3.1,4.3,3.1,7.4c0,2.9-0.9,5.2-2.7,7l3.1,7.1c0,0.5-0.3,1-0.7,1.5c-0.8,1-2.2,1.5-4,1.5
			c-1.9,0-3.3-0.4-4-1.2c-0.9-0.9-1.7-2.9-2.6-6.1c-0.7,0-1.3,0-1.9-0.1v4.9c0,1.6-1.6,2.4-4.7,2.4c-3.1,0-4.7-0.8-4.7-2.4v-20.7
			c0-1.6,0.7-2.7,2.2-3.3c1.4-0.6,3.9-0.9,7.6-0.9C134.6,456.2,137.7,457.2,139.9,459.1z M134.1,466.7c0-2.3-1.3-3.4-4-3.4v7.2
			c0.2,0,0.5,0,0.7,0C133,470.6,134.1,469.3,134.1,466.7z"/>
		<path class="st0" d="M163.2,477c0.6,0.4,0.9,1.3,0.9,2.5c0,1.5-0.3,2.5-1,3.1c-0.8,0.7-2.2,1-4.2,1h-6.6c-2.6,0-4.4-0.4-5.5-1.3
			c-0.9-0.7-1.3-1.7-1.3-3.2v-19.6c0-0.8,0.3-1.5,0.9-2c0.6-0.5,1.3-0.7,2.2-0.7h13.5c0.8,0.7,1.2,1.8,1.2,3.4
			c-0.1,1.5-0.4,2.5-0.9,3.1c-0.6,0.6-1.7,0.9-3.3,0.9h-4.7v3.3h7.6c1.2,0,1.8,0.9,1.8,2.8c0,1.2-0.3,2.1-1,2.6
			c-0.7,0.5-1.9,0.8-3.5,0.8h-4.8v3.3H163.2z"/>
		<path class="st0" d="M190,481.1c0,1.6-1.6,2.4-4.7,2.4c-3.1,0-4.7-0.8-4.7-2.4v-6.8h-4.4v6.8c0,1.6-1.6,2.4-4.7,2.4
			c-3.1,0-4.7-0.8-4.7-2.4v-22c0-1.6,1.5-2.4,4.6-2.4c3.2,0,4.8,0.8,4.8,2.4v9h4.4v-9c0-1.6,1.5-2.4,4.6-2.4c3.2,0,4.8,0.8,4.8,2.4
			V481.1z"/>
		<path class="st0" d="M214.8,460.2c2,2.4,2.9,5.7,2.9,9.7c0,4-1,7.3-3.1,9.8c-2.3,2.7-5.5,4.1-9.6,4.1s-7.3-1.3-9.5-4
			c-2-2.4-3-5.6-3-9.7c0-4.4,1.1-7.8,3.3-10.2c2.2-2.5,5.5-3.7,9.7-3.7C209.5,456.2,212.7,457.6,214.8,460.2z M207.2,464.6
			c-0.4-0.9-1.2-1.4-2.2-1.4c-1.9,0-2.9,2.3-2.9,6.9c0,2.9,0.3,4.9,0.8,5.9c0.4,0.9,1.1,1.4,2.2,1.4c0.9,0,1.6-0.5,2.1-1.4
			c0.5-1.1,0.8-3.1,0.8-5.9C207.9,467.5,207.7,465.6,207.2,464.6z"/>
		<path class="st0" d="M243.2,472.5c0,3.3-0.9,6-2.7,8c-2,2.2-4.9,3.3-8.8,3.3c-7.7,0-11.5-3.7-11.5-11.1l0-13.6
			c0-1.6,1.5-2.4,4.6-2.4c3.2,0,4.8,0.8,4.8,2.4v14.5c0,1.4,0.2,2.4,0.6,3c0.4,0.5,1,0.8,2,0.8s1.6-0.3,2-0.8
			c0.4-0.6,0.7-1.6,0.7-3.1l0-14.4c0-1.6,1.4-2.4,4.2-2.4c2.9,0,4.3,0.8,4.3,2.4V472.5z"/>
		<path class="st0" d="M265.5,457.6c0.4,1.2,0.5,2.3,0.4,3.5c-0.2,2.3-1.5,3.5-3.9,3.5c-0.7,0-1.5-0.1-2.5-0.3
			c-1-0.2-1.8-0.3-2.5-0.3c-2,0-3.1,0.6-3.1,1.7c0,0.8,0.7,1.3,2,1.5c0.4,0.1,1.1,0.1,2,0.1l2.3,0.1c4.1,0.3,6.2,2.5,6.2,6.6
			c0,2.9-0.9,5.2-2.7,7c-2,1.9-5,2.9-8.9,2.9c-6.1,0-9.2-1.7-9.2-5.2c0-1.9,0.7-3.1,2.1-3.5c2,1.1,4.3,1.7,7,1.7
			c2.3,0,3.4-0.6,3.4-1.7c0-0.8-0.7-1.3-2-1.5c-0.4-0.1-1-0.1-2-0.2c-1-0.1-1.7-0.1-2.3-0.2c-4.1-0.5-6.2-3-6.2-7.3
			c0-3,1-5.4,2.9-7.1c2.1-1.8,5.1-2.7,9-2.7C261.6,456.2,264.2,456.7,265.5,457.6z"/>
		<path class="st0" d="M286.5,477c0.6,0.4,0.9,1.3,0.9,2.5c0,1.5-0.3,2.5-1,3.1c-0.8,0.7-2.2,1-4.2,1h-6.6c-2.6,0-4.4-0.4-5.5-1.3
			c-0.9-0.7-1.3-1.7-1.3-3.2v-19.6c0-0.8,0.3-1.5,0.9-2c0.6-0.5,1.3-0.7,2.2-0.7h13.5c0.8,0.7,1.2,1.8,1.2,3.4
			c-0.1,1.5-0.4,2.5-0.9,3.1c-0.6,0.6-1.7,0.9-3.3,0.9h-4.7v3.3h7.6c1.2,0,1.8,0.9,1.8,2.8c0,1.2-0.3,2.1-1,2.6
			c-0.7,0.5-1.9,0.8-3.5,0.8h-4.8v3.3H286.5z"/>
	</g>
	<g>
		<g>
			<path class="st0" d="M18.4,234.3v-51.1h9.5v20.5h18.3v-20.5h9.5v51.1h-9.5v-21.4H27.9v21.4H18.4z"/>
			<path class="st0" d="M89.4,182.2c7.3,0,13.6,2.6,18.8,7.8c5.2,5.2,7.8,11.5,7.8,18.9c0,7.4-2.6,13.6-7.8,18.8
				c-5.2,5.2-11.5,7.8-18.8,7.8c-7.3,0-13.6-2.6-18.8-7.8c-5.2-5.2-7.9-11.4-7.9-18.8c0-7.4,2.6-13.7,7.8-18.9
				C75.8,184.9,82.1,182.2,89.4,182.2z M89.4,191.4c-4.8,0-8.8,1.7-12.1,5.1c-3.3,3.4-5,7.5-5,12.3c0,4.7,1.7,8.8,5.1,12.3
				c3.4,3.5,7.4,5.2,12.1,5.2c4.7,0,8.7-1.7,12.1-5.2c3.4-3.5,5.1-7.6,5.1-12.3c0-4.8-1.7-8.9-5-12.3
				C98.2,193.1,94.2,191.4,89.4,191.4z"/>
			<path class="st0" d="M123.5,183.2h9.5v31.9v1.3c0,0.6,0,1.2,0,1.7c0,0.5,0.1,1.1,0.2,1.7c0.1,0.6,0.3,1.3,0.8,2.1
				c0.7,1.3,1.6,2.4,2.8,3.2c1.2,0.8,2.5,1.2,4,1.2c1.3,0,2.5-0.3,3.6-0.9c1.1-0.6,2.1-1.5,2.9-2.7c0.6-1,1-2.2,1.2-3.7
				c0.1-1,0.2-2.3,0.2-4v-31.9h9.5v31.9c0,3-0.2,5.4-0.6,7.3c-0.5,2.5-1.6,4.7-3.1,6.5c-1.6,2-3.7,3.6-6.1,4.8s-4.9,1.9-7.5,1.9
				c-2.4,0-4.7-0.6-7.1-1.7c-2.4-1.1-4.4-2.7-6-4.5c-1.7-1.9-2.8-4.1-3.5-6.7c-0.2-0.9-0.4-2-0.5-3.2c-0.1-1.2-0.2-2.6-0.2-4.3
				V183.2z"/>
			<path class="st0" d="M164.1,219.9h9.9c0,1.9,0.7,3.5,2.1,4.7c1.3,1.1,3,1.7,5,1.7c0.9,0,1.7-0.1,2.5-0.4c0.8-0.3,1.5-0.7,2.2-1.4
				c1.3-1.2,2-2.8,2-4.6c0-1.8-0.5-3.2-1.4-4.4c-0.7-0.9-1.8-1.8-3.4-2.6c-1-0.5-2.4-1-4.2-1.6c-2.3-0.7-3.9-1.3-4.7-1.8
				c-1.6-0.7-2.9-1.7-4.1-2.9c-1.2-1.2-2.2-2.7-2.9-4.5c-0.4-0.9-0.6-1.8-0.8-2.6c-0.2-0.9-0.3-1.8-0.3-2.7c0-4.1,1.5-7.6,4.4-10.4
				c3-2.8,6.5-4.2,10.6-4.2c4,0,7.5,1.4,10.5,4.3c3,2.9,4.5,6.3,4.5,10.2h-9.8c0-1.5-0.6-2.7-1.7-3.8c-1.1-1-2.5-1.6-4-1.6
				c-1.5,0-2.7,0.5-3.6,1.5c-0.9,1-1.4,2.3-1.4,3.9c0,1.3,0.4,2.4,1.2,3.3c0.9,1.1,2.7,2,5.2,2.9c2.9,1,4.7,1.6,5.2,1.9
				c1.8,0.8,3.4,1.7,4.7,2.8c3.6,2.9,5.4,6.7,5.4,11.6c0,4.5-1.6,8.3-4.9,11.5c-3.3,3.1-7.2,4.7-11.7,4.7c-4.4,0-8.2-1.5-11.6-4.5
				C165.7,228,164.1,224.3,164.1,219.9z"/>
			<path class="st0" d="M203.8,234.3v-51.1h27.5v9.2h-18v11.8h17.2v9.2h-17.2v11.8h18v9.2H203.8z"/>
		</g>
	</g>
	<g>
		<path class="st0" d="M143.2,20.5L51.4,77.3v51.8h8.1V81.8l83.7-51.8l83.7,51.8v81.5h-54v8.1H235V77.3L143.2,20.5z"/>
	</g>
	<g>
		<rect x="125.6" y="64.1" class="st0" width="16.3" height="16.1"/>
		<rect x="144.5" y="64.1" class="st0" width="16.3" height="16.1"/>
		<rect x="144.5" y="82.6" class="st0" width="16.3" height="16.1"/>
		<rect x="125.6" y="82.6" class="st0" width="16.3" height="16.1"/>
	</g>
	<g>
		<path class="st0" d="M27.3,172.5l-9.9-33.9h6.4l5.9,23.7l5.8-23.7h4.6l5.7,23.7l6-23.7h6.4l-9.8,33.9h-5L38,150.1l-5.6,22.4H27.3z
			"/>
		<path class="st0" d="M61.5,172.5v-33.9h6.3v13.6h12.1v-13.6h6.3v33.9h-6.3v-14.2H67.8v14.2H61.5z"/>
		<path class="st0" d="M92.7,172.5v-33.9h18.2v6.1H99v7.8h11.4v6.1H99v7.8h11.9v6.1H92.7z"/>
		<path class="st0" d="M116.6,172.5v-33.9h9.8c1,0,1.8,0,2.6,0.1c0.8,0.1,1.5,0.2,2,0.3c1.6,0.4,3,1,4.2,2c1.2,1,2.1,2.2,2.9,3.7
			c0.7,1.5,1.1,3,1.1,4.6c0,0.7-0.1,1.3-0.2,1.9c-0.1,0.6-0.3,1.3-0.6,2c-0.5,1.4-1.2,2.5-2,3.4c-0.8,0.9-1.7,1.6-2.8,2.1
			c-0.9,0.5-2,0.9-3.2,1.2l9.2,12.5h-7.7l-8.9-13v13H116.6z M122.8,154.7h3.4c1.1,0,2-0.1,2.6-0.2c1-0.2,1.8-0.6,2.4-1.2
			c1-1,1.5-2.2,1.5-3.7c0-0.8-0.1-1.5-0.4-2.1c-0.3-0.7-0.8-1.2-1.4-1.7c-0.6-0.5-1.4-0.8-2.2-1c-0.3,0-0.6-0.1-1-0.1
			c-0.4,0-0.9,0-1.5,0h-3.5V154.7z"/>
		<path class="st0" d="M143.2,172.5v-33.9h18.2v6.1h-11.9v7.8h11.4v6.1h-11.4v7.8h11.9v6.1H143.2z"/>
	</g>
</g>
</svg>
